<?xml version="1.0" encoding="utf-8"?>
<!-- Generator: Adobe Illustrator 19.0.0, SVG Export Plug-In . SVG Version: 6.00 Build 0)  -->
<svg version="1.1" id="Layer_1" xmlns="http://www.w3.org/2000/svg" xmlns:xlink="http://www.w3.org/1999/xlink" x="0px" y="0px"
	 viewBox="-225 317 160 160" style="enable-background:new -225 317 160 160;" xml:space="preserve">
<style type="text/css">
	.st0{display:none;fill:#FFFFFF;}
	.st1{fill:#0087FF;}
</style>
<circle class="st0" cx="-145" cy="397" r="80"/>
<path class="st1" d="M-145,333c11.1,0,22,2.9,31.6,8.3C-115.3,358.9-124,365-145,365c-17.7,0-32,14.3-32,32s14.3,32,32,32
	c21,0,29.7,6.1,31.6,23.7c-30.7,17.4-69.8,6.7-87.3-24.1s-6.7-69.8,24.1-87.3C-167,335.9-156.1,333-145,333z"/>
<path class="st1" d="M-89.3,365.4c11.1,19.6,11.1,43.6,0,63.2C-106.9,426.7-113,418-113,397S-106.9,367.3-89.3,365.4z"/>
</svg>
